<svg width="1515" height="857" viewBox="0 0 1515 857" fill="none" xmlns="http://www.w3.org/2000/svg">
<path d="M1655.81 880.006C1655.99 880.889 1656.17 881.771 1656.35 882.668C1661.14 910.433 1652.96 940.713 1631.71 965.283C1609.17 991.32 1575.49 1009.52 1540.05 1024.01C1534.51 1026.27 1528.92 1028.44 1523.33 1030.57C1520.48 1031.63 1517.63 1032.68 1514.8 1033.7C1435.21 1062.58 1351.9 1082.14 1268.96 1101.52C1182.23 1121.89 1095.4 1142.25 1008.33 1161.47L991.062 1165.26C858.896 1194.15 726.184 1220.12 592.457 1238.98C550.959 1244.85 508.884 1249.97 467.083 1252.59C461.13 1253 455.179 1253.33 449.231 1253.58C393.595 1256.11 338.619 1253.73 286.6 1242.21C274.331 1239.54 262.173 1236.16 250.176 1232.09C216.63 1220.63 186.81 1203.52 168.685 1178.73C158.116 1164.18 151.414 1146.78 149.364 1128.58C148.56 1121.97 148.238 1115.33 148.401 1108.71C148.934 1092.31 151.578 1076.17 156.252 1060.77C168.172 1020.24 190.635 981.481 208.752 941.996C247.45 857.826 263.432 758.256 198.378 693.566C179.708 674.978 155.243 660.36 139.009 640.241C130.3 629.36 123.657 616.704 119.499 603.07C117.552 596.808 115.988 590.427 114.818 583.968C112.275 568.847 110.888 553.57 110.67 538.299C109.282 490.688 114.17 438.043 154.888 399.778C182.68 373.657 221.992 359.225 263.359 351.9C269.163 350.86 274.997 349.969 280.863 349.228C296.871 347.129 312.984 346.022 328.679 345.61C425.615 342.923 519.069 359.787 612.652 373.118C683.899 383.255 757.199 391.364 830.684 387.289C836.623 386.954 842.551 386.558 848.484 386.053C865.616 384.642 882.754 382.513 899.864 379.564C985.008 364.823 1079.5 324.144 1124.79 259.742C1168.53 197.5 1269.44 172.415 1349.58 187.689L1350.78 187.925C1356.82 189.133 1362.73 190.555 1368.51 192.192C1428.78 209.393 1475.27 250.546 1490.91 300.411C1492.86 306.603 1494.32 312.947 1495.29 319.371C1495.31 319.434 1495.33 319.499 1495.33 319.565C1504.72 382.943 1469.45 445.062 1433.49 507.418C1429.04 515.117 1424.57 522.819 1420.18 530.552C1408.56 551.002 1397.44 571.489 1388.37 592.083C1384.22 601.426 1380.62 611.073 1377.59 620.966C1374.81 630.088 1372.77 639.492 1371.49 649.071C1370.11 659.001 1369.99 669.152 1371.15 679.233C1372.76 693.693 1378.05 707.524 1386.39 719.123L1386.58 719.398C1404.75 744.341 1435.22 758.392 1469.4 769.37C1475.71 771.408 1482.15 773.322 1488.67 775.19C1525.47 785.755 1564.58 794.547 1596.22 810.433C1604.72 814.586 1612.88 819.584 1620.61 825.363C1623.76 827.77 1626.81 830.354 1629.73 833.103C1642.53 844.994 1651.6 861.035 1655.53 878.753C1655.64 879.199 1655.72 879.603 1655.81 880.006Z" fill="#8A88BA" fill-opacity="0.3"/>
<path d="M1981.28 719.79C1981.67 720.603 1982.06 721.415 1982.46 722.241C1993.82 748.024 1993.21 779.383 1978.54 808.362C1962.96 839.08 1934.68 864.885 1903.8 887.519C1898.97 891.057 1894.07 894.511 1889.17 897.931C1886.66 899.648 1884.15 901.358 1881.65 903.035C1811.41 950.307 1735.3 989.435 1659.52 1028.31C1580.29 1069.06 1500.97 1109.81 1421.13 1149.53L1405.29 1157.39C1284.04 1217.39 1161.55 1274.69 1036.36 1325.34C997.515 1341.08 957.928 1356.22 918.004 1368.88C912.326 1370.71 906.631 1372.47 900.92 1374.15C847.549 1390.07 793.631 1401.06 740.369 1402.46C727.819 1402.84 715.206 1402.51 702.58 1401.46C667.257 1398.45 634.186 1389.07 610.6 1369.4C596.825 1357.83 586.113 1342.58 579.721 1325.41C577.342 1319.19 575.422 1312.82 573.98 1306.36C570.53 1290.32 569.19 1274.02 570.001 1257.95C571.761 1215.74 584.181 1172.7 592.208 1130C609.395 1038.97 600.814 938.492 522.044 891.461C499.431 877.942 472.156 869.676 451.537 854.082C440.455 845.631 430.948 834.958 423.614 822.734C420.211 817.13 417.15 811.316 414.452 805.332C408.327 791.276 403.284 776.788 399.379 762.023C386.514 716.162 378.522 663.898 408.774 616.919C429.421 584.851 464.074 561.337 502.44 544.223C507.82 541.809 513.266 539.534 518.778 537.396C533.802 531.487 549.17 526.515 564.299 522.318C657.705 496.26 752.464 490.016 846.491 480.311C918.074 472.912 991.159 463.048 1061.48 441.317C1067.16 439.554 1072.81 437.737 1078.45 435.811C1094.73 430.298 1110.84 424.086 1126.73 417.086C1205.78 382.185 1287.63 319.854 1315.99 246.41C1343.37 175.435 1435.22 126.684 1516.67 122.117L1517.89 122.056C1524.05 121.766 1530.13 121.717 1536.13 121.908C1598.77 124.015 1653.84 152.701 1681.07 197.301C1684.46 202.839 1687.42 208.639 1689.91 214.637C1689.95 214.693 1689.98 214.753 1690 214.816C1714.44 274.041 1695.24 342.847 1675.43 412.051C1672.98 420.598 1670.51 429.151 1668.12 437.716C1661.79 460.37 1655.96 482.939 1652.14 505.114C1650.38 515.184 1649.21 525.416 1648.67 535.748C1648.18 545.271 1648.48 554.889 1649.55 564.494C1650.61 574.464 1652.95 584.341 1656.52 593.842C1661.58 607.482 1670.05 619.624 1680.96 628.861L1681.2 629.082C1704.86 648.889 1737.83 655.153 1773.65 657.534C1780.26 657.986 1786.98 658.285 1793.76 658.52C1832.02 659.868 1872.1 658.937 1906.64 666.698C1915.89 668.671 1925.02 671.546 1933.91 675.285C1937.56 676.857 1941.14 678.628 1944.63 680.589C1959.94 689.029 1972.62 702.4 1980.72 718.64C1980.93 719.047 1981.11 719.419 1981.28 719.79Z" fill="#6C63FF"/>
</svg>
