<svg width="1496" height="562" viewBox="0 0 1496 562" fill="none" xmlns="http://www.w3.org/2000/svg">
<path d="M1520.82 1125.52C1520.93 1126.77 1521.04 1128.02 1521.16 1129.29C1523.81 1168.59 1513.36 1210.03 1490.32 1242.09C1465.88 1276.06 1430.94 1297.89 1394.53 1314.36C1388.83 1316.93 1383.1 1319.36 1377.37 1321.75C1374.44 1322.92 1371.53 1324.09 1368.63 1325.21C1287.13 1357.07 1202.63 1375.51 1118.52 1393.75C1030.55 1412.96 942.489 1432.15 854.271 1449.72L836.772 1453.18C702.885 1479.45 568.676 1501.58 433.995 1513.67C392.2 1517.45 349.888 1520.11 308.037 1519.33C302.074 1519.26 296.12 1519.08 290.174 1518.79C234.546 1516.4 179.948 1507.22 128.993 1485.57C116.971 1480.54 105.113 1474.53 93.4681 1467.56C60.9156 1447.96 32.5029 1420.89 16.3285 1384.32C6.90347 1362.86 1.54781 1337.84 0.890069 1312.19C0.590683 1302.88 0.77471 1293.56 1.44036 1284.33C3.21945 1261.47 7.08051 1239.21 12.9088 1218.19C27.8674 1162.84 53.1971 1111.08 74.2503 1057.85C119.209 944.385 142.704 806.981 82.8033 709.669C65.6132 681.709 42.3477 658.678 27.7014 628.839C19.8511 612.709 14.1946 594.319 11.0878 574.828C9.62425 565.873 8.55127 556.79 7.87623 547.642C6.49223 526.246 6.2714 504.754 7.2161 483.396C9.45252 416.732 18.326 343.702 61.8072 294.584C91.4851 261.054 131.753 245.082 173.528 239.258C179.39 238.424 185.272 237.801 191.172 237.391C207.282 236.166 223.422 236.337 239.092 237.434C335.884 244.014 427.72 277.539 519.952 306.139C590.172 327.898 662.592 347.041 736.123 349.182C742.067 349.346 748.003 349.426 753.953 349.352C771.131 349.208 788.369 348.061 805.642 345.765C891.6 334.247 988.85 287.488 1038.87 202.342C1087.18 120.046 1189.64 95.7584 1268.33 125.642L1269.51 126.099C1275.44 128.431 1281.21 131.048 1286.84 133.95C1345.6 164.407 1388.79 226.858 1400.58 298.191C1402.05 307.05 1403.03 316.069 1403.51 325.147C1403.52 325.237 1403.53 325.33 1403.53 325.423C1408.06 414.968 1368.2 497.993 1327.62 581.276C1322.6 591.558 1317.57 601.843 1312.61 612.179C1299.48 639.51 1286.84 666.947 1276.24 694.751C1271.39 707.362 1267.07 720.455 1263.3 733.954C1259.84 746.402 1257.09 759.322 1255.08 772.569C1252.95 786.294 1252.06 800.464 1252.45 814.671C1252.96 835.045 1257.17 854.932 1264.6 872.027L1264.77 872.429C1280.97 909.215 1310.26 932.094 1343.5 951.075C1349.62 954.594 1355.9 957.956 1362.25 961.261C1398.11 979.943 1436.42 996.398 1466.73 1021.96C1474.89 1028.67 1482.64 1036.53 1489.9 1045.42C1492.86 1049.12 1495.7 1053.06 1498.4 1057.21C1510.25 1075.19 1518.07 1098.56 1520.64 1123.74C1520.71 1124.37 1520.76 1124.94 1520.82 1125.52Z" fill="#8A88BA" fill-opacity="0.3"/>
<path d="M1901.32 885.45C1901.65 886.626 1901.98 887.802 1902.31 888.998C1911.67 926.231 1908.67 969.977 1891.85 1008.9C1874 1050.15 1843.86 1083.19 1811.37 1111.52C1806.29 1115.95 1801.14 1120.25 1796 1124.51C1793.36 1126.64 1790.74 1128.76 1788.11 1130.84C1714.53 1189.39 1635.72 1235.94 1557.26 1282.17C1475.21 1330.65 1393.08 1379.14 1310.51 1426.11L1294.13 1435.4C1168.75 1506.31 1042.35 1573.3 913.755 1630.72C873.853 1648.56 833.257 1665.5 792.514 1678.93C786.717 1680.89 780.909 1682.73 775.09 1684.47C720.701 1701.02 666.141 1710.63 612.964 1706.91C600.431 1706.1 587.888 1704.29 575.387 1701.48C540.42 1693.51 508.181 1676.88 486.176 1646.88C473.33 1629.26 463.816 1606.8 458.752 1582.13C456.855 1573.2 455.426 1564.09 454.48 1554.91C452.262 1532.13 452.167 1509.22 454.196 1486.85C459.16 1428.06 474.808 1369.26 486.052 1310.46C510.098 1185.12 509.188 1043.82 434.277 969.721C412.774 948.422 386.225 933.967 366.866 909.982C356.466 896.994 347.805 881.069 341.427 863.21C338.462 855.018 335.854 846.569 333.62 837.922C328.586 817.63 324.664 796.852 321.895 775.807C312.564 710.365 308.573 636.495 342.289 574.087C365.3 531.485 401.616 502.329 441.146 482.509C446.69 479.711 452.289 477.112 457.944 474.713C473.363 468.059 489.053 462.751 504.447 458.5C599.499 432.053 694.392 433.432 788.819 429.898C860.708 427.192 934.279 421.202 1006 398.338C1011.79 396.482 1017.56 394.545 1023.32 392.456C1039.97 386.489 1056.5 379.529 1072.86 371.442C1154.28 331.11 1240.57 252.753 1274.41 153.169C1307.09 56.9309 1402.32 -1.38804 1483.83 0.916049L1485.05 0.960735C1491.2 1.21187 1497.26 1.79084 1503.22 2.69761C1565.49 12.3208 1618.17 58.2669 1641.92 123.481C1644.87 131.579 1647.38 139.997 1649.41 148.644C1649.44 148.726 1649.47 148.813 1649.48 148.903C1669.33 234.251 1644.97 328.333 1619.97 422.904C1616.87 434.584 1613.77 446.27 1610.74 457.981C1602.71 488.956 1595.18 519.866 1589.69 550.439C1587.16 564.319 1585.23 578.49 1583.9 592.867C1582.69 606.119 1582.25 619.588 1582.59 633.121C1582.89 647.162 1584.47 661.212 1587.3 674.865C1591.31 694.462 1598.83 712.329 1608.99 726.395L1609.21 726.731C1631.29 756.926 1663.66 769.19 1699.17 776.336C1705.72 777.673 1712.39 778.806 1719.13 779.857C1757.15 785.82 1797.16 788.793 1830.98 803.317C1840.05 807.06 1848.93 812.05 1857.51 818.222C1861.02 820.807 1864.45 823.662 1867.79 826.775C1882.39 840.197 1894.01 860.23 1900.85 883.782C1901.03 884.373 1901.18 884.911 1901.32 885.45Z" fill="#6C63FF"/>
</svg>
