<svg width="1920" height="1080" viewBox="0 0 1920 1080" fill="none" xmlns="http://www.w3.org/2000/svg">
    <path d="M2513.18 406.303C2514.26 406.533 2515.34 406.762 2516.43 406.995C2549.91 414.943 2581.3 433.996 2601.17 460.785C2622.23 489.197 2630.08 522.952 2633.03 556.516C2633.49 561.765 2633.82 567.009 2634.12 572.234C2634.23 574.893 2634.34 577.54 2634.42 580.168C2636.87 654.008 2627.27 726.818 2617.62 799.268C2607.64 875.077 2597.61 950.948 2586.19 1026.54L2583.9 1041.52C2566.24 1156.14 2545.04 1269.95 2515.35 1381.56C2506.15 1416.21 2495.88 1450.98 2482.87 1484.5C2481.06 1489.28 2479.15 1494.04 2477.16 1498.75C2458.75 1542.96 2434.99 1584.59 2401.94 1620.09C2394.2 1628.48 2385.7 1636.5 2376.47 1644.09C2350.55 1665.29 2319.64 1681.23 2284.44 1684.88C2263.8 1686.97 2241.4 1684.86 2219.87 1678.81C2212.03 1676.66 2204.33 1674.12 2196.85 1671.22C2178.36 1663.92 2160.97 1655.09 2145.2 1645C2103.56 1618.74 2067.98 1585.06 2029.9 1554.43C1948.76 1489.09 1841.37 1434.9 1742.72 1458.19C1714.39 1464.86 1688.36 1477.7 1659.21 1481.84C1643.47 1484.03 1626.5 1483.86 1609.36 1481.36C1601.48 1480.25 1593.61 1478.78 1585.79 1476.98C1567.58 1472.6 1549.64 1467.26 1532.14 1461.02C1477.34 1442.11 1419.19 1416.22 1391.16 1368.58C1372.02 1336.07 1370.62 1299.52 1378.1 1264.37C1379.14 1259.43 1380.36 1254.53 1381.76 1249.68C1385.49 1236.38 1390.4 1223.42 1395.94 1211.08C1429.98 1134.78 1484.98 1069.39 1536 1002.42C1574.84 951.429 1612.14 897.993 1635.62 839.299C1637.52 834.553 1639.33 829.79 1641.03 824.978C1645.98 811.1 1650.11 796.917 1653.3 782.411C1669.09 710.199 1658.89 619.845 1602.81 557.694C1548.6 497.65 1558.63 408.868 1606.72 353.136L1607.45 352.305C1611.14 348.126 1615.02 344.142 1619.1 340.35C1661.78 300.829 1726.49 282.057 1789.33 290.862C1797.13 291.952 1804.92 293.477 1812.62 295.421C1812.7 295.432 1812.78 295.449 1812.86 295.472C1888.7 314.801 1946.01 368.227 2003.33 422.291C2010.4 428.974 2017.48 435.668 2024.61 442.316C2043.48 459.913 2062.57 477.139 2082.58 492.813C2091.64 499.955 2101.26 506.797 2111.38 513.299C2120.71 519.282 2130.65 524.812 2141.08 529.827C2151.87 535.07 2163.4 539.42 2175.34 542.752C2192.44 547.572 2210.23 549.281 2226.65 547.679L2227.03 547.653C2262.42 544.034 2290.1 526.306 2315.7 504.404C2320.44 500.372 2325.09 496.177 2329.71 491.905C2355.84 467.805 2380.84 441.165 2411.06 423.304C2419.05 418.455 2427.87 414.222 2437.42 410.659C2441.37 409.223 2445.48 407.947 2449.73 406.836C2468.19 401.898 2489.95 401.6 2511.65 405.988C2512.2 406.093 2512.69 406.198 2513.18 406.303Z" fill="#8A88BA" fill-opacity="0.3"/>
    <path d="M2550.91 429.221C2552.04 429.459 2553.18 429.697 2554.33 429.94C2589.76 438.094 2624.8 456.331 2649.31 481.321C2675.29 507.825 2688.63 538.853 2696.95 569.575C2698.25 574.379 2699.41 579.176 2700.54 583.954C2701.07 586.384 2701.6 588.804 2702.1 591.205C2716.26 658.684 2717.97 724.9 2719.56 790.785C2721.35 859.728 2723.1 928.727 2723.39 997.428L2723.42 1011.05C2723.51 1115.21 2719.84 1218.55 2707.17 1319.65C2703.26 1351.04 2698.27 1382.51 2690.29 1412.76C2689.19 1417.08 2688 1421.37 2686.71 1425.62C2674.9 1465.48 2657.24 1502.86 2629.11 1534.38C2622.54 1541.83 2615.13 1548.92 2606.91 1555.61C2583.81 1574.26 2554.78 1587.99 2519.43 1590.38C2498.7 1591.73 2475.51 1589.2 2452.57 1583.1C2444.23 1580.93 2435.98 1578.4 2427.88 1575.55C2407.86 1568.39 2388.72 1559.87 2371.04 1550.23C2324.39 1525.14 2282.75 1493.43 2239.05 1464.45C2145.93 1402.62 2027.77 1350.27 1930.77 1368.88C1902.9 1374.21 1878.37 1385.23 1849.27 1388.23C1833.55 1389.81 1816.21 1389.2 1798.33 1386.46C1790.11 1385.23 1781.84 1383.68 1773.58 1381.82C1754.31 1377.34 1735.15 1371.98 1716.31 1365.82C1657.39 1347.08 1593.96 1321.88 1557.82 1277.64C1533.16 1247.44 1525.95 1214.04 1528.04 1182.15C1528.31 1177.67 1528.78 1173.23 1529.45 1168.83C1531.16 1156.8 1534.12 1145.09 1537.82 1133.97C1560.51 1065.23 1606.32 1007.01 1647.81 947.236C1679.38 901.724 1709.01 853.94 1723.71 800.985C1724.89 796.702 1725.99 792.403 1726.96 788.055C1729.82 775.518 1731.8 762.68 1732.76 749.522C1737.47 684.019 1712.79 601.256 1645.74 543.009C1580.92 486.737 1577.14 405.951 1617.41 356.361L1618.03 355.621C1621.13 351.905 1624.47 348.371 1628.03 345.02C1665.35 310.083 1728.42 294.682 1793.94 304.406C1802.07 305.61 1810.27 307.212 1818.43 309.193C1818.51 309.205 1818.6 309.223 1818.68 309.246C1899.13 328.927 1966.06 379.241 2033.1 430.137C2041.37 436.428 2049.65 442.73 2057.98 448.991C2080.01 465.562 2102.22 481.801 2125.12 496.648C2135.49 503.411 2146.39 509.916 2157.74 516.123C2168.22 521.836 2179.23 527.152 2190.67 532.009C2202.51 537.086 2214.96 541.367 2227.67 544.729C2245.88 549.589 2264.31 551.626 2280.81 550.604L2281.2 550.59C2316.74 548.236 2342.2 532.793 2364.86 513.484C2369.06 509.93 2373.14 506.226 2377.19 502.45C2400.05 481.148 2421.35 457.498 2449.37 442.001C2456.76 437.789 2465.09 434.161 2474.27 431.165C2478.08 429.959 2482.07 428.905 2486.24 428.005C2504.29 423.991 2526.45 424.303 2549.29 428.892C2549.87 429.003 2550.39 429.112 2550.91 429.221Z" fill="#6C63FF"/>
    <path d="M24.182 759.526C23.2566 760.031 22.3313 760.535 21.3902 761.048C-7.9113 776.298 -42.4843 784.145 -73.3923 780.928C-106.153 777.5 -132.552 763.348 -155.258 746.424C-158.808 743.777 -162.259 741.055 -165.673 738.323C-167.381 736.91 -169.085 735.505 -170.751 734.09C-217.751 694.48 -255.327 648.365 -292.644 602.42C-331.777 554.413 -370.913 506.343 -408.862 457.616L-416.369 447.941C-473.66 373.852 -527.869 298.126 -574.541 218.636C-589.044 193.977 -602.838 168.61 -613.869 142.337C-615.475 138.609 -616.994 134.848 -618.427 131.055C-632.058 95.6653 -640.215 58.5673 -637.827 19.4154C-637.321 10.2043 -636.021 0.756282 -633.934 -8.88893C-628 -35.8969 -615.205 -62.9187 -591.744 -85.6267C-577.965 -98.9076 -560.328 -110.895 -540.905 -120.181C-533.869 -123.591 -526.697 -126.701 -519.458 -129.482C-501.492 -136.288 -483.399 -141.596 -465.717 -145.248C-419.25 -155.112 -372.652 -157.288 -326.113 -162.631C-226.889 -173.971 -115.334 -206.93 -57.6004 -277.826C-41.0068 -298.183 -29.8682 -320.609 -11.1312 -340.036C-0.98374 -350.496 11.5003 -360.375 25.5356 -369.052C31.9735 -373.06 38.6176 -376.87 45.4222 -380.456C61.3919 -388.721 77.7578 -396.297 94.3458 -403.102C145.922 -424.785 204.208 -444.548 253.836 -434.534C287.713 -427.701 311.112 -408.21 327.173 -384.271C329.44 -380.918 331.55 -377.479 333.503 -373.955C338.917 -364.371 343.271 -354.284 346.788 -344.168C368.658 -281.755 368.555 -213.095 372.327 -145.893C375.21 -94.7351 380.704 -43.1156 399.502 3.30924C401.028 7.05909 402.617 10.7747 404.327 14.4458C409.211 25.0684 414.879 35.3817 421.434 45.3182C454.126 94.737 516.893 138.974 595.876 140.581C672.205 142.114 719.243 197.363 718.271 256.596L718.248 257.486C718.114 261.976 717.72 266.473 717.066 270.975C710.114 318.02 674.382 366.468 623.136 398.483C616.773 402.462 610.152 406.192 603.346 409.632C603.281 409.673 603.213 409.71 603.142 409.743C535.957 443.55 461.417 447.518 386.484 451.133C377.23 451.573 367.97 452.006 358.691 452.502C334.15 453.801 309.666 455.443 285.468 458.482C274.482 459.835 263.273 461.681 251.907 464.011C241.431 466.169 230.791 468.933 220.109 472.273C209.025 475.695 197.948 480.049 187.197 485.209C171.764 492.575 157.735 502.076 146.734 512.611L146.471 512.85C122.859 535.651 113.511 561.768 108.237 588.984C107.25 594.007 106.425 599.07 105.665 604.162C101.351 632.91 99.4199 662.404 88.3028 690.085C85.4415 697.473 81.5939 705.009 76.8097 712.597C74.8053 715.716 72.5867 718.841 70.163 721.956C59.7166 735.544 44.0197 748.492 25.4939 758.801C25.029 759.065 24.6055 759.296 24.182 759.526Z" fill="#8A88BA" fill-opacity="0.3"/>
    <path d="M-33.4301 681.157C-34.4159 681.596 -35.4016 682.036 -36.4041 682.482C-67.6411 695.699 -104.827 701.55 -138.404 696.956C-173.993 692.069 -203.041 677.194 -228.181 659.836C-232.111 657.122 -235.936 654.339 -239.722 651.55C-241.618 650.11 -243.509 648.677 -245.359 647.238C-297.544 606.914 -339.734 560.801 -381.638 514.865C-425.576 466.86 -469.519 418.795 -512.198 370.157L-520.642 360.501C-585.09 286.566 -646.255 211.211 -699.379 132.607C-715.886 108.221 -731.648 83.1911 -744.447 57.425C-746.306 53.767 -748.074 50.0818 -749.749 46.3696C-765.659 11.7228 -775.698 -24.2979 -774.383 -61.7772C-774.133 -70.5975 -773.033 -79.6067 -771.086 -88.7668C-765.536 -114.412 -752.557 -139.737 -727.887 -160.399C-713.396 -172.481 -694.686 -183.133 -673.953 -191.104C-666.444 -194.036 -658.778 -196.673 -651.028 -198.991C-631.793 -204.651 -612.372 -208.867 -593.341 -211.512C-543.34 -218.722 -492.947 -218.541 -442.721 -221.406C-335.635 -227.462 -215.897 -253.678 -155.675 -318.944C-138.366 -337.684 -127.031 -358.676 -107.371 -376.418C-96.7212 -385.968 -83.5223 -394.846 -68.6044 -402.494C-61.7626 -406.03 -54.6911 -409.365 -47.4385 -412.477C-30.4124 -419.636 -12.9348 -426.113 4.80829 -431.84C59.9588 -450.149 122.439 -466.288 176.508 -454.254C213.417 -446.043 239.39 -426.187 257.56 -402.418C260.124 -399.088 262.521 -395.683 264.751 -392.204C270.924 -382.736 275.968 -372.838 280.104 -362.954C305.814 -301.956 307.933 -236.03 314.199 -171.316C318.982 -122.051 326.608 -72.2158 348.473 -26.7208C350.247 -23.0457 352.088 -19.4003 354.059 -15.7919C359.693 -5.35369 366.166 4.82568 373.588 14.6865C410.596 63.7331 480.006 109.269 565.593 114.659C648.303 119.848 701.037 175.192 701.907 232.023L701.911 232.877C701.912 237.182 701.631 241.481 701.069 245.772C695.068 290.608 657.945 335.39 603.487 363.637C596.725 367.148 589.676 370.407 582.417 373.378C582.348 373.415 582.275 373.447 582.2 373.475C510.539 402.666 429.945 402.846 348.914 402.668C338.906 402.64 328.892 402.604 318.86 402.629C292.325 402.681 265.863 403.066 239.757 404.805C227.903 405.569 215.824 406.796 203.591 408.48C192.316 410.041 180.883 412.178 169.423 414.864C157.531 417.611 145.676 421.252 134.201 425.683C117.728 432.005 102.843 440.445 91.2715 450.025L90.9947 450.242C66.1636 470.987 56.8884 495.611 52.0611 521.488C51.1549 526.263 50.4254 531.085 49.7676 535.937C46.0299 563.332 44.8957 591.559 33.7551 617.599C30.8964 624.554 26.9743 631.603 22.0395 638.656C19.9702 641.554 17.6689 644.446 15.1453 647.32C4.27353 659.859 -12.3051 671.527 -32.0329 680.524C-32.5278 680.755 -32.9789 680.956 -33.4301 681.157Z" fill="#6C63FF"/>
</svg>
    